<mxfile host="app.diagrams.net" modified="2021-03-17T13:33:19.697Z" agent="5.0 (Windows NT 10.0; Win64; x64) AppleWebKit/537.36 (KHTML, like Gecko) Chrome/89.0.4389.82 Safari/537.36" etag="iAAkExHh4NY4QlSrew8J" version="14.4.8" type="github">
  <diagram id="rIf6zHWB5ex0NnGZYS8r" name="Page-1">
    <mxGraphModel dx="2519" dy="1888" grid="1" gridSize="10" guides="1" tooltips="1" connect="1" arrows="1" fold="1" page="1" pageScale="1" pageWidth="827" pageHeight="1169" math="0" shadow="0">
      <root>
        <mxCell id="0" />
        <mxCell id="1" parent="0" />
        <mxCell id="IRzicpuc0U0eCPe4g1LP-6" style="edgeStyle=orthogonalEdgeStyle;rounded=0;orthogonalLoop=1;jettySize=auto;html=1;exitX=0.5;exitY=1;exitDx=0;exitDy=0;entryX=0.5;entryY=0;entryDx=0;entryDy=0;" edge="1" parent="1" source="IRzicpuc0U0eCPe4g1LP-1" target="IRzicpuc0U0eCPe4g1LP-3">
          <mxGeometry relative="1" as="geometry" />
        </mxCell>
        <mxCell id="IRzicpuc0U0eCPe4g1LP-1" value="" style="ellipse;whiteSpace=wrap;html=1;" vertex="1" parent="1">
          <mxGeometry x="500" y="40" width="120" height="80" as="geometry" />
        </mxCell>
        <mxCell id="IRzicpuc0U0eCPe4g1LP-2" value="START" style="text;html=1;strokeColor=none;fillColor=none;align=center;verticalAlign=middle;whiteSpace=wrap;rounded=0;" vertex="1" parent="1">
          <mxGeometry x="540" y="70" width="40" height="20" as="geometry" />
        </mxCell>
        <mxCell id="IRzicpuc0U0eCPe4g1LP-9" value="" style="edgeStyle=orthogonalEdgeStyle;rounded=0;orthogonalLoop=1;jettySize=auto;html=1;entryX=0.5;entryY=0;entryDx=0;entryDy=0;" edge="1" parent="1" source="IRzicpuc0U0eCPe4g1LP-3" target="IRzicpuc0U0eCPe4g1LP-7">
          <mxGeometry relative="1" as="geometry">
            <mxPoint x="560" y="250" as="targetPoint" />
            <Array as="points" />
          </mxGeometry>
        </mxCell>
        <mxCell id="IRzicpuc0U0eCPe4g1LP-3" value="" style="shape=internalStorage;whiteSpace=wrap;html=1;backgroundOutline=1;dx=10;dy=10;" vertex="1" parent="1">
          <mxGeometry x="420" y="160" width="280" height="60" as="geometry" />
        </mxCell>
        <mxCell id="IRzicpuc0U0eCPe4g1LP-4" value="nro_1, nro_2, nro_3" style="text;html=1;strokeColor=none;fillColor=none;align=center;verticalAlign=middle;whiteSpace=wrap;rounded=0;" vertex="1" parent="1">
          <mxGeometry x="480" y="180" width="160" height="20" as="geometry" />
        </mxCell>
        <mxCell id="IRzicpuc0U0eCPe4g1LP-19" style="edgeStyle=orthogonalEdgeStyle;rounded=0;orthogonalLoop=1;jettySize=auto;html=1;" edge="1" parent="1" source="IRzicpuc0U0eCPe4g1LP-7" target="IRzicpuc0U0eCPe4g1LP-12">
          <mxGeometry relative="1" as="geometry" />
        </mxCell>
        <mxCell id="IRzicpuc0U0eCPe4g1LP-7" value="nro_1" style="shape=manualInput;whiteSpace=wrap;html=1;" vertex="1" parent="1">
          <mxGeometry x="510" y="260" width="100" height="60" as="geometry" />
        </mxCell>
        <mxCell id="IRzicpuc0U0eCPe4g1LP-8" style="edgeStyle=orthogonalEdgeStyle;rounded=0;orthogonalLoop=1;jettySize=auto;html=1;exitX=0.5;exitY=1;exitDx=0;exitDy=0;" edge="1" parent="1" source="IRzicpuc0U0eCPe4g1LP-7" target="IRzicpuc0U0eCPe4g1LP-7">
          <mxGeometry relative="1" as="geometry" />
        </mxCell>
        <mxCell id="IRzicpuc0U0eCPe4g1LP-15" style="edgeStyle=orthogonalEdgeStyle;rounded=0;orthogonalLoop=1;jettySize=auto;html=1;entryX=0.5;entryY=0;entryDx=0;entryDy=0;" edge="1" parent="1" source="IRzicpuc0U0eCPe4g1LP-12" target="IRzicpuc0U0eCPe4g1LP-14">
          <mxGeometry relative="1" as="geometry" />
        </mxCell>
        <mxCell id="IRzicpuc0U0eCPe4g1LP-12" value="nro_2" style="shape=manualInput;whiteSpace=wrap;html=1;" vertex="1" parent="1">
          <mxGeometry x="510" y="340" width="100" height="60" as="geometry" />
        </mxCell>
        <mxCell id="IRzicpuc0U0eCPe4g1LP-20" style="edgeStyle=orthogonalEdgeStyle;rounded=0;orthogonalLoop=1;jettySize=auto;html=1;entryX=0.5;entryY=0;entryDx=0;entryDy=0;" edge="1" parent="1" source="IRzicpuc0U0eCPe4g1LP-14" target="IRzicpuc0U0eCPe4g1LP-16">
          <mxGeometry relative="1" as="geometry" />
        </mxCell>
        <mxCell id="IRzicpuc0U0eCPe4g1LP-14" value="nro_3" style="shape=manualInput;whiteSpace=wrap;html=1;" vertex="1" parent="1">
          <mxGeometry x="510" y="420" width="100" height="60" as="geometry" />
        </mxCell>
        <mxCell id="IRzicpuc0U0eCPe4g1LP-22" style="edgeStyle=orthogonalEdgeStyle;rounded=0;orthogonalLoop=1;jettySize=auto;html=1;entryX=0.5;entryY=0;entryDx=0;entryDy=0;" edge="1" parent="1" target="IRzicpuc0U0eCPe4g1LP-21">
          <mxGeometry relative="1" as="geometry">
            <mxPoint x="580" y="560" as="sourcePoint" />
          </mxGeometry>
        </mxCell>
        <mxCell id="IRzicpuc0U0eCPe4g1LP-76" style="edgeStyle=orthogonalEdgeStyle;rounded=0;orthogonalLoop=1;jettySize=auto;html=1;entryX=0.5;entryY=0;entryDx=0;entryDy=0;" edge="1" parent="1" source="IRzicpuc0U0eCPe4g1LP-16" target="IRzicpuc0U0eCPe4g1LP-134">
          <mxGeometry relative="1" as="geometry">
            <mxPoint x="120" y="640" as="targetPoint" />
          </mxGeometry>
        </mxCell>
        <mxCell id="IRzicpuc0U0eCPe4g1LP-16" value="nro_1 &amp;gt; nro_2" style="rhombus;whiteSpace=wrap;html=1;" vertex="1" parent="1">
          <mxGeometry x="480" y="520" width="160" height="80" as="geometry" />
        </mxCell>
        <mxCell id="IRzicpuc0U0eCPe4g1LP-27" style="edgeStyle=orthogonalEdgeStyle;rounded=0;orthogonalLoop=1;jettySize=auto;html=1;entryX=0.5;entryY=0;entryDx=0;entryDy=0;" edge="1" parent="1" source="IRzicpuc0U0eCPe4g1LP-21" target="IRzicpuc0U0eCPe4g1LP-24">
          <mxGeometry relative="1" as="geometry" />
        </mxCell>
        <mxCell id="IRzicpuc0U0eCPe4g1LP-31" style="edgeStyle=orthogonalEdgeStyle;rounded=0;orthogonalLoop=1;jettySize=auto;html=1;entryX=0.5;entryY=0;entryDx=0;entryDy=0;" edge="1" parent="1" source="IRzicpuc0U0eCPe4g1LP-21" target="IRzicpuc0U0eCPe4g1LP-30">
          <mxGeometry relative="1" as="geometry" />
        </mxCell>
        <mxCell id="IRzicpuc0U0eCPe4g1LP-21" value="nro_2 &amp;gt; nro_3" style="rhombus;whiteSpace=wrap;html=1;" vertex="1" parent="1">
          <mxGeometry x="840" y="640" width="160" height="80" as="geometry" />
        </mxCell>
        <mxCell id="IRzicpuc0U0eCPe4g1LP-23" value="SIM" style="text;html=1;strokeColor=none;fillColor=none;align=center;verticalAlign=middle;whiteSpace=wrap;rounded=0;" vertex="1" parent="1">
          <mxGeometry x="640" y="520" width="40" height="20" as="geometry" />
        </mxCell>
        <mxCell id="IRzicpuc0U0eCPe4g1LP-28" style="edgeStyle=orthogonalEdgeStyle;rounded=0;orthogonalLoop=1;jettySize=auto;html=1;entryX=0.5;entryY=0;entryDx=0;entryDy=0;" edge="1" parent="1" source="IRzicpuc0U0eCPe4g1LP-24" target="IRzicpuc0U0eCPe4g1LP-25">
          <mxGeometry relative="1" as="geometry" />
        </mxCell>
        <mxCell id="IRzicpuc0U0eCPe4g1LP-24" value="nro_1" style="shape=document;whiteSpace=wrap;html=1;boundedLbl=1;" vertex="1" parent="1">
          <mxGeometry x="1041" y="900" width="120" height="80" as="geometry" />
        </mxCell>
        <mxCell id="IRzicpuc0U0eCPe4g1LP-29" style="edgeStyle=orthogonalEdgeStyle;rounded=0;orthogonalLoop=1;jettySize=auto;html=1;entryX=0.5;entryY=0;entryDx=0;entryDy=0;" edge="1" parent="1" source="IRzicpuc0U0eCPe4g1LP-25" target="IRzicpuc0U0eCPe4g1LP-26">
          <mxGeometry relative="1" as="geometry" />
        </mxCell>
        <mxCell id="IRzicpuc0U0eCPe4g1LP-25" value="nro_2" style="shape=document;whiteSpace=wrap;html=1;boundedLbl=1;" vertex="1" parent="1">
          <mxGeometry x="1041" y="1020" width="120" height="80" as="geometry" />
        </mxCell>
        <mxCell id="IRzicpuc0U0eCPe4g1LP-163" style="edgeStyle=orthogonalEdgeStyle;rounded=0;orthogonalLoop=1;jettySize=auto;html=1;entryX=0.5;entryY=0;entryDx=0;entryDy=0;" edge="1" parent="1" source="IRzicpuc0U0eCPe4g1LP-26" target="IRzicpuc0U0eCPe4g1LP-157">
          <mxGeometry relative="1" as="geometry">
            <Array as="points">
              <mxPoint x="1101" y="1320" />
              <mxPoint x="420" y="1320" />
            </Array>
          </mxGeometry>
        </mxCell>
        <mxCell id="IRzicpuc0U0eCPe4g1LP-26" value="nro_3" style="shape=document;whiteSpace=wrap;html=1;boundedLbl=1;" vertex="1" parent="1">
          <mxGeometry x="1041" y="1140" width="120" height="80" as="geometry" />
        </mxCell>
        <mxCell id="IRzicpuc0U0eCPe4g1LP-68" style="edgeStyle=orthogonalEdgeStyle;rounded=0;orthogonalLoop=1;jettySize=auto;html=1;entryX=0.5;entryY=0;entryDx=0;entryDy=0;" edge="1" parent="1" source="IRzicpuc0U0eCPe4g1LP-30" target="IRzicpuc0U0eCPe4g1LP-59">
          <mxGeometry relative="1" as="geometry" />
        </mxCell>
        <mxCell id="IRzicpuc0U0eCPe4g1LP-69" style="edgeStyle=orthogonalEdgeStyle;rounded=0;orthogonalLoop=1;jettySize=auto;html=1;entryX=0.5;entryY=0;entryDx=0;entryDy=0;" edge="1" parent="1" source="IRzicpuc0U0eCPe4g1LP-30" target="IRzicpuc0U0eCPe4g1LP-64">
          <mxGeometry relative="1" as="geometry" />
        </mxCell>
        <mxCell id="IRzicpuc0U0eCPe4g1LP-30" value="nro_1 &amp;gt; nro_3" style="rhombus;whiteSpace=wrap;html=1;" vertex="1" parent="1">
          <mxGeometry x="620" y="760" width="160" height="80" as="geometry" />
        </mxCell>
        <mxCell id="IRzicpuc0U0eCPe4g1LP-58" value="v" style="edgeStyle=orthogonalEdgeStyle;rounded=0;orthogonalLoop=1;jettySize=auto;html=1;entryX=0.5;entryY=0;entryDx=0;entryDy=0;" edge="1" parent="1" source="IRzicpuc0U0eCPe4g1LP-59" target="IRzicpuc0U0eCPe4g1LP-61">
          <mxGeometry relative="1" as="geometry" />
        </mxCell>
        <mxCell id="IRzicpuc0U0eCPe4g1LP-59" value="nro_1" style="shape=document;whiteSpace=wrap;html=1;boundedLbl=1;" vertex="1" parent="1">
          <mxGeometry x="800" y="880" width="120" height="80" as="geometry" />
        </mxCell>
        <mxCell id="IRzicpuc0U0eCPe4g1LP-60" style="edgeStyle=orthogonalEdgeStyle;rounded=0;orthogonalLoop=1;jettySize=auto;html=1;entryX=0.5;entryY=0;entryDx=0;entryDy=0;" edge="1" parent="1" source="IRzicpuc0U0eCPe4g1LP-61" target="IRzicpuc0U0eCPe4g1LP-62">
          <mxGeometry relative="1" as="geometry" />
        </mxCell>
        <mxCell id="IRzicpuc0U0eCPe4g1LP-61" value="nro_3" style="shape=document;whiteSpace=wrap;html=1;boundedLbl=1;" vertex="1" parent="1">
          <mxGeometry x="800" y="1010" width="120" height="70" as="geometry" />
        </mxCell>
        <mxCell id="IRzicpuc0U0eCPe4g1LP-162" style="edgeStyle=orthogonalEdgeStyle;rounded=0;orthogonalLoop=1;jettySize=auto;html=1;entryX=0.5;entryY=0;entryDx=0;entryDy=0;" edge="1" parent="1" source="IRzicpuc0U0eCPe4g1LP-62" target="IRzicpuc0U0eCPe4g1LP-157">
          <mxGeometry relative="1" as="geometry">
            <Array as="points">
              <mxPoint x="860" y="1290" />
              <mxPoint x="420" y="1290" />
            </Array>
          </mxGeometry>
        </mxCell>
        <mxCell id="IRzicpuc0U0eCPe4g1LP-62" value="nro_2" style="shape=document;whiteSpace=wrap;html=1;boundedLbl=1;" vertex="1" parent="1">
          <mxGeometry x="800" y="1120" width="120" height="80" as="geometry" />
        </mxCell>
        <mxCell id="IRzicpuc0U0eCPe4g1LP-63" style="edgeStyle=orthogonalEdgeStyle;rounded=0;orthogonalLoop=1;jettySize=auto;html=1;entryX=0.5;entryY=0;entryDx=0;entryDy=0;" edge="1" parent="1" source="IRzicpuc0U0eCPe4g1LP-64" target="IRzicpuc0U0eCPe4g1LP-66">
          <mxGeometry relative="1" as="geometry" />
        </mxCell>
        <mxCell id="IRzicpuc0U0eCPe4g1LP-64" value="nro_3" style="shape=document;whiteSpace=wrap;html=1;boundedLbl=1;" vertex="1" parent="1">
          <mxGeometry x="480" y="880" width="120" height="80" as="geometry" />
        </mxCell>
        <mxCell id="IRzicpuc0U0eCPe4g1LP-65" style="edgeStyle=orthogonalEdgeStyle;rounded=0;orthogonalLoop=1;jettySize=auto;html=1;entryX=0.5;entryY=0;entryDx=0;entryDy=0;" edge="1" parent="1" source="IRzicpuc0U0eCPe4g1LP-66" target="IRzicpuc0U0eCPe4g1LP-67">
          <mxGeometry relative="1" as="geometry" />
        </mxCell>
        <mxCell id="IRzicpuc0U0eCPe4g1LP-66" value="nro_1" style="shape=document;whiteSpace=wrap;html=1;boundedLbl=1;" vertex="1" parent="1">
          <mxGeometry x="480" y="1000" width="120" height="80" as="geometry" />
        </mxCell>
        <mxCell id="IRzicpuc0U0eCPe4g1LP-161" style="edgeStyle=orthogonalEdgeStyle;rounded=0;orthogonalLoop=1;jettySize=auto;html=1;entryX=0.5;entryY=0;entryDx=0;entryDy=0;" edge="1" parent="1" source="IRzicpuc0U0eCPe4g1LP-67" target="IRzicpuc0U0eCPe4g1LP-157">
          <mxGeometry relative="1" as="geometry">
            <Array as="points">
              <mxPoint x="540" y="1260" />
              <mxPoint x="420" y="1260" />
            </Array>
          </mxGeometry>
        </mxCell>
        <mxCell id="IRzicpuc0U0eCPe4g1LP-67" value="nro_2" style="shape=document;whiteSpace=wrap;html=1;boundedLbl=1;" vertex="1" parent="1">
          <mxGeometry x="480" y="1120" width="120" height="80" as="geometry" />
        </mxCell>
        <mxCell id="IRzicpuc0U0eCPe4g1LP-70" value="SIM" style="text;html=1;strokeColor=none;fillColor=none;align=center;verticalAlign=middle;whiteSpace=wrap;rounded=0;" vertex="1" parent="1">
          <mxGeometry x="1001" y="640" width="40" height="20" as="geometry" />
        </mxCell>
        <mxCell id="IRzicpuc0U0eCPe4g1LP-71" value="SIM" style="text;html=1;strokeColor=none;fillColor=none;align=center;verticalAlign=middle;whiteSpace=wrap;rounded=0;" vertex="1" parent="1">
          <mxGeometry x="800" y="760" width="40" height="20" as="geometry" />
        </mxCell>
        <mxCell id="IRzicpuc0U0eCPe4g1LP-72" value="NAO" style="text;html=1;strokeColor=none;fillColor=none;align=center;verticalAlign=middle;whiteSpace=wrap;rounded=0;" vertex="1" parent="1">
          <mxGeometry x="560" y="760" width="40" height="20" as="geometry" />
        </mxCell>
        <mxCell id="IRzicpuc0U0eCPe4g1LP-73" value="NAO" style="text;html=1;strokeColor=none;fillColor=none;align=center;verticalAlign=middle;whiteSpace=wrap;rounded=0;" vertex="1" parent="1">
          <mxGeometry x="800" y="640" width="40" height="20" as="geometry" />
        </mxCell>
        <mxCell id="IRzicpuc0U0eCPe4g1LP-74" value="NAO" style="text;html=1;strokeColor=none;fillColor=none;align=center;verticalAlign=middle;whiteSpace=wrap;rounded=0;" vertex="1" parent="1">
          <mxGeometry x="410" y="520" width="40" height="20" as="geometry" />
        </mxCell>
        <mxCell id="IRzicpuc0U0eCPe4g1LP-132" style="edgeStyle=orthogonalEdgeStyle;rounded=0;orthogonalLoop=1;jettySize=auto;html=1;entryX=0.5;entryY=0;entryDx=0;entryDy=0;" edge="1" parent="1" source="IRzicpuc0U0eCPe4g1LP-134" target="IRzicpuc0U0eCPe4g1LP-136">
          <mxGeometry relative="1" as="geometry" />
        </mxCell>
        <mxCell id="IRzicpuc0U0eCPe4g1LP-133" style="edgeStyle=orthogonalEdgeStyle;rounded=0;orthogonalLoop=1;jettySize=auto;html=1;entryX=0.5;entryY=0;entryDx=0;entryDy=0;" edge="1" parent="1" source="IRzicpuc0U0eCPe4g1LP-134" target="IRzicpuc0U0eCPe4g1LP-142">
          <mxGeometry relative="1" as="geometry" />
        </mxCell>
        <mxCell id="IRzicpuc0U0eCPe4g1LP-134" value="nro_1 &amp;gt; nro_3" style="rhombus;whiteSpace=wrap;html=1;" vertex="1" parent="1">
          <mxGeometry x="89" y="640" width="160" height="80" as="geometry" />
        </mxCell>
        <mxCell id="IRzicpuc0U0eCPe4g1LP-135" style="edgeStyle=orthogonalEdgeStyle;rounded=0;orthogonalLoop=1;jettySize=auto;html=1;entryX=0.5;entryY=0;entryDx=0;entryDy=0;" edge="1" parent="1" source="IRzicpuc0U0eCPe4g1LP-136" target="IRzicpuc0U0eCPe4g1LP-138">
          <mxGeometry relative="1" as="geometry" />
        </mxCell>
        <mxCell id="IRzicpuc0U0eCPe4g1LP-136" value="nro_2" style="shape=document;whiteSpace=wrap;html=1;boundedLbl=1;" vertex="1" parent="1">
          <mxGeometry x="290" y="900" width="120" height="80" as="geometry" />
        </mxCell>
        <mxCell id="IRzicpuc0U0eCPe4g1LP-137" style="edgeStyle=orthogonalEdgeStyle;rounded=0;orthogonalLoop=1;jettySize=auto;html=1;entryX=0.5;entryY=0;entryDx=0;entryDy=0;" edge="1" parent="1" source="IRzicpuc0U0eCPe4g1LP-138" target="IRzicpuc0U0eCPe4g1LP-139">
          <mxGeometry relative="1" as="geometry" />
        </mxCell>
        <mxCell id="IRzicpuc0U0eCPe4g1LP-138" value="nro_1" style="shape=document;whiteSpace=wrap;html=1;boundedLbl=1;" vertex="1" parent="1">
          <mxGeometry x="290" y="1020" width="120" height="80" as="geometry" />
        </mxCell>
        <mxCell id="IRzicpuc0U0eCPe4g1LP-160" style="edgeStyle=orthogonalEdgeStyle;rounded=0;orthogonalLoop=1;jettySize=auto;html=1;entryX=0.5;entryY=0;entryDx=0;entryDy=0;" edge="1" parent="1" source="IRzicpuc0U0eCPe4g1LP-139" target="IRzicpuc0U0eCPe4g1LP-157">
          <mxGeometry relative="1" as="geometry">
            <mxPoint x="420" y="1370" as="targetPoint" />
            <Array as="points">
              <mxPoint x="360" y="1260" />
              <mxPoint x="420" y="1260" />
            </Array>
          </mxGeometry>
        </mxCell>
        <mxCell id="IRzicpuc0U0eCPe4g1LP-139" value="nro_3" style="shape=document;whiteSpace=wrap;html=1;boundedLbl=1;" vertex="1" parent="1">
          <mxGeometry x="290" y="1140" width="120" height="80" as="geometry" />
        </mxCell>
        <mxCell id="IRzicpuc0U0eCPe4g1LP-140" style="edgeStyle=orthogonalEdgeStyle;rounded=0;orthogonalLoop=1;jettySize=auto;html=1;entryX=0.5;entryY=0;entryDx=0;entryDy=0;" edge="1" parent="1" source="IRzicpuc0U0eCPe4g1LP-142" target="IRzicpuc0U0eCPe4g1LP-144">
          <mxGeometry relative="1" as="geometry" />
        </mxCell>
        <mxCell id="IRzicpuc0U0eCPe4g1LP-141" style="edgeStyle=orthogonalEdgeStyle;rounded=0;orthogonalLoop=1;jettySize=auto;html=1;entryX=0.5;entryY=0;entryDx=0;entryDy=0;" edge="1" parent="1" source="IRzicpuc0U0eCPe4g1LP-142" target="IRzicpuc0U0eCPe4g1LP-149">
          <mxGeometry relative="1" as="geometry" />
        </mxCell>
        <mxCell id="IRzicpuc0U0eCPe4g1LP-142" value="nro_2 &amp;gt; nro_3" style="rhombus;whiteSpace=wrap;html=1;" vertex="1" parent="1">
          <mxGeometry x="-131" y="760" width="160" height="80" as="geometry" />
        </mxCell>
        <mxCell id="IRzicpuc0U0eCPe4g1LP-143" value="v" style="edgeStyle=orthogonalEdgeStyle;rounded=0;orthogonalLoop=1;jettySize=auto;html=1;entryX=0.5;entryY=0;entryDx=0;entryDy=0;" edge="1" parent="1" source="IRzicpuc0U0eCPe4g1LP-144" target="IRzicpuc0U0eCPe4g1LP-146">
          <mxGeometry relative="1" as="geometry" />
        </mxCell>
        <mxCell id="IRzicpuc0U0eCPe4g1LP-144" value="nro_2" style="shape=document;whiteSpace=wrap;html=1;boundedLbl=1;" vertex="1" parent="1">
          <mxGeometry x="49" y="880" width="120" height="80" as="geometry" />
        </mxCell>
        <mxCell id="IRzicpuc0U0eCPe4g1LP-145" style="edgeStyle=orthogonalEdgeStyle;rounded=0;orthogonalLoop=1;jettySize=auto;html=1;entryX=0.5;entryY=0;entryDx=0;entryDy=0;" edge="1" parent="1" source="IRzicpuc0U0eCPe4g1LP-146" target="IRzicpuc0U0eCPe4g1LP-147">
          <mxGeometry relative="1" as="geometry" />
        </mxCell>
        <mxCell id="IRzicpuc0U0eCPe4g1LP-146" value="nro_3" style="shape=document;whiteSpace=wrap;html=1;boundedLbl=1;" vertex="1" parent="1">
          <mxGeometry x="49" y="1010" width="120" height="70" as="geometry" />
        </mxCell>
        <mxCell id="IRzicpuc0U0eCPe4g1LP-159" style="edgeStyle=orthogonalEdgeStyle;rounded=0;orthogonalLoop=1;jettySize=auto;html=1;entryX=0.5;entryY=0;entryDx=0;entryDy=0;" edge="1" parent="1" source="IRzicpuc0U0eCPe4g1LP-147" target="IRzicpuc0U0eCPe4g1LP-157">
          <mxGeometry relative="1" as="geometry">
            <Array as="points">
              <mxPoint x="109" y="1290" />
              <mxPoint x="420" y="1290" />
            </Array>
          </mxGeometry>
        </mxCell>
        <mxCell id="IRzicpuc0U0eCPe4g1LP-147" value="nro_1" style="shape=document;whiteSpace=wrap;html=1;boundedLbl=1;" vertex="1" parent="1">
          <mxGeometry x="49" y="1120" width="120" height="80" as="geometry" />
        </mxCell>
        <mxCell id="IRzicpuc0U0eCPe4g1LP-148" style="edgeStyle=orthogonalEdgeStyle;rounded=0;orthogonalLoop=1;jettySize=auto;html=1;entryX=0.5;entryY=0;entryDx=0;entryDy=0;" edge="1" parent="1" source="IRzicpuc0U0eCPe4g1LP-149" target="IRzicpuc0U0eCPe4g1LP-151">
          <mxGeometry relative="1" as="geometry" />
        </mxCell>
        <mxCell id="IRzicpuc0U0eCPe4g1LP-149" value="nro_3" style="shape=document;whiteSpace=wrap;html=1;boundedLbl=1;" vertex="1" parent="1">
          <mxGeometry x="-271" y="880" width="120" height="80" as="geometry" />
        </mxCell>
        <mxCell id="IRzicpuc0U0eCPe4g1LP-150" style="edgeStyle=orthogonalEdgeStyle;rounded=0;orthogonalLoop=1;jettySize=auto;html=1;entryX=0.5;entryY=0;entryDx=0;entryDy=0;" edge="1" parent="1" source="IRzicpuc0U0eCPe4g1LP-151" target="IRzicpuc0U0eCPe4g1LP-152">
          <mxGeometry relative="1" as="geometry" />
        </mxCell>
        <mxCell id="IRzicpuc0U0eCPe4g1LP-151" value="nro_2" style="shape=document;whiteSpace=wrap;html=1;boundedLbl=1;" vertex="1" parent="1">
          <mxGeometry x="-271" y="1000" width="120" height="80" as="geometry" />
        </mxCell>
        <mxCell id="IRzicpuc0U0eCPe4g1LP-158" style="edgeStyle=orthogonalEdgeStyle;rounded=0;orthogonalLoop=1;jettySize=auto;html=1;" edge="1" parent="1" source="IRzicpuc0U0eCPe4g1LP-152">
          <mxGeometry relative="1" as="geometry">
            <mxPoint x="420" y="1380" as="targetPoint" />
            <Array as="points">
              <mxPoint x="-211" y="1320" />
              <mxPoint x="420" y="1320" />
            </Array>
          </mxGeometry>
        </mxCell>
        <mxCell id="IRzicpuc0U0eCPe4g1LP-152" value="nro_1" style="shape=document;whiteSpace=wrap;html=1;boundedLbl=1;" vertex="1" parent="1">
          <mxGeometry x="-271" y="1120" width="120" height="80" as="geometry" />
        </mxCell>
        <mxCell id="IRzicpuc0U0eCPe4g1LP-153" value="SIM" style="text;html=1;strokeColor=none;fillColor=none;align=center;verticalAlign=middle;whiteSpace=wrap;rounded=0;" vertex="1" parent="1">
          <mxGeometry x="250" y="640" width="40" height="20" as="geometry" />
        </mxCell>
        <mxCell id="IRzicpuc0U0eCPe4g1LP-154" value="SIM" style="text;html=1;strokeColor=none;fillColor=none;align=center;verticalAlign=middle;whiteSpace=wrap;rounded=0;" vertex="1" parent="1">
          <mxGeometry x="49" y="760" width="40" height="20" as="geometry" />
        </mxCell>
        <mxCell id="IRzicpuc0U0eCPe4g1LP-155" value="NAO" style="text;html=1;strokeColor=none;fillColor=none;align=center;verticalAlign=middle;whiteSpace=wrap;rounded=0;" vertex="1" parent="1">
          <mxGeometry x="-191" y="760" width="40" height="20" as="geometry" />
        </mxCell>
        <mxCell id="IRzicpuc0U0eCPe4g1LP-156" value="NAO" style="text;html=1;strokeColor=none;fillColor=none;align=center;verticalAlign=middle;whiteSpace=wrap;rounded=0;" vertex="1" parent="1">
          <mxGeometry x="49" y="640" width="40" height="20" as="geometry" />
        </mxCell>
        <mxCell id="IRzicpuc0U0eCPe4g1LP-157" value="END" style="ellipse;whiteSpace=wrap;html=1;" vertex="1" parent="1">
          <mxGeometry x="360" y="1380" width="120" height="80" as="geometry" />
        </mxCell>
      </root>
    </mxGraphModel>
  </diagram>
</mxfile>
